HIERARCHY
ROOT hip
{
	OFFSET 0.000000 0.000000 0.000000 
	CHANNELS 6 Xposition Yposition Zposition Xrotation Zrotation Yrotation
	JOINT abdomen
	{
		OFFSET 0.000000 3.402643 0.000000 
		CHANNELS 3 Xrotation Zrotation Yrotation
		JOINT chest
		{
			OFFSET 0.000000 8.438565 -0.680529 
			CHANNELS 3 Xrotation Zrotation Yrotation
			JOINT neck
			{
				OFFSET 0.000000 10.207942 -0.272212 
				CHANNELS 3 Xrotation Zrotation Yrotation
				JOINT head
				{
					OFFSET 0.000000 3.130431 0.000000 
					CHANNELS 3 Xrotation Zrotation Yrotation
					End Site
					{
						OFFSET 0.000000 3.130435 0.000000 
					}
				}
			}
			JOINT lCollar
			{
				OFFSET 3.470700 6.669187 -0.816635 
				CHANNELS 3 Yrotation Zrotation Xrotation
				JOINT lShldr
				{
					OFFSET 3.198488 0.000000 0.000000 
					CHANNELS 3 Zrotation Yrotation Xrotation
					JOINT lForeArm
					{
						OFFSET 10.139888 0.000000 0.000000 
						CHANNELS 3 Yrotation Zrotation Xrotation
						JOINT lHand
						{
							OFFSET 8.370511 0.000000 0.000000 
							CHANNELS 3 Zrotation Yrotation Xrotation
							End Site
							{
								OFFSET 4.083176 0.000000 0.000000 
							}
						}
					}
				}
			}
			JOINT rCollar
			{
				OFFSET -3.470700 6.669187 -0.816635 
				CHANNELS 3 Yrotation Zrotation Xrotation
				JOINT rShldr
				{
					OFFSET -3.198488 0.000000 0.000000 
					CHANNELS 3 Zrotation Yrotation Xrotation
					JOINT rForeArm
					{
						OFFSET -10.139888 0.000000 0.000000 
						CHANNELS 3 Yrotation Zrotation Xrotation
						JOINT rHand
						{
							OFFSET -8.370511 0.000000 0.000000 
							CHANNELS 3 Zrotation Yrotation Xrotation
							End Site
							{
								OFFSET -4.083176 0.000000 0.000000 
							}
						}
					}
				}
			}
		}
	}
	JOINT lThigh
	{
		OFFSET 5.308129 -1.633274 1.361059 
		CHANNELS 3 Xrotation Zrotation Yrotation
		JOINT lShin
		{
			OFFSET -2.041588 -20.007561 0.000000 
			CHANNELS 3 Xrotation Zrotation Yrotation
			JOINT lFoot
			{
				OFFSET 0.000000 -19.190928 -1.224953 
				CHANNELS 3 Xrotation Yrotation Zrotation
				End Site
				{
					OFFSET 0.000000 -2.449906 4.627600 
				}
			}
		}
	}
	JOINT rThigh
	{
		OFFSET -5.308129 -1.633274 1.361059 
		CHANNELS 3 Xrotation Zrotation Yrotation
		JOINT rShin
		{
			OFFSET 2.041588 -20.007561 0.000000 
			CHANNELS 3 Xrotation Zrotation Yrotation
			JOINT rFoot
			{
				OFFSET 0.000000 -19.190928 -1.224953 
				CHANNELS 3 Xrotation Yrotation Zrotation
				End Site
				{
					OFFSET 0.000000 -2.449906 4.627600 
				}
			}
		}
	}
}
MOTION
Frames: 16
Frame Time: 0.033333
0.000000 48.898308 8.839087 5.537109 -3.056641 -1.044922 -7.783203 2.373047 -0.819908 -10.380859 1.689453 -5.820313 -5.048829 0.361328 -0.654297 -3.476562 -0.781250 -0.673961 0.000000 -1.230469 -0.068359 -59.414066 13.486328 -8.124999 -9.189452 -1.806641 -2.919614 -0.126953 0.585938 9.687501 -1.728516 -0.351563 0.009766 52.529293 -16.992188 -11.513671 7.675782 -0.634766 0.254014 9.638673 -1.962891 -0.537444 5.160625 4.457691 -0.591230 14.199551 -2.274343 -1.329382 -5.612050 1.760612 1.310970 4.879604 2.078431 -0.324052 14.116897 2.079280 -0.284669 1.376241 1.573727 -1.108992 
0.000000 49.282875 19.224098 11.708984 -6.787109 -2.333985 -17.333986 5.263672 -1.826172 -23.769531 3.789063 -12.949218 -11.230469 0.800781 -1.435410 -7.724609 -1.738281 -1.513968 0.000000 -1.230469 -0.068359 -32.744141 19.824217 -8.857422 -8.691405 -4.189453 -2.948506 -0.429688 1.464844 21.992184 -1.728516 -0.351563 0.009766 21.308594 -21.376951 -3.701171 7.968750 -2.968750 0.391131 21.425781 -4.375000 -2.265625 12.580454 7.953854 -1.481374 18.090162 -2.460442 -1.573848 -3.156135 9.199639 2.808107 6.491851 -2.098561 0.543219 31.450077 1.117786 0.834561 -4.243016 -4.116964 9.147625 
0.000000 49.378853 29.820553 20.068359 -10.468750 -3.496094 -26.552734 8.154297 -2.820880 -34.277344 5.761718 -19.852531 -17.285158 1.240234 -2.236328 -11.884766 -2.685547 -2.265625 0.000000 -1.230469 -0.068359 -1.884766 30.312502 -3.652344 -8.232422 -6.611328 -3.056641 -0.722656 2.324219 34.023438 -1.728516 -0.351563 0.009766 -6.376953 -25.878906 2.896130 8.251954 -5.205079 0.557527 32.988285 -6.669921 -3.965976 8.066385 9.286191 -2.181531 33.628067 -2.364082 -2.686969 -8.127816 18.867010 8.783108 0.430234 -15.305658 2.686831 52.670780 -0.603250 1.875427 -2.066775 -10.072238 26.785975 
0.000000 48.644814 39.641956 33.525391 -13.525390 -4.101563 -33.632816 10.664063 -3.681641 -35.244141 7.138672 -25.175781 -22.236326 1.640625 -2.968470 -15.263673 -3.486328 -2.714872 0.000000 -1.230469 -0.068359 36.884762 51.210938 17.695311 -7.939454 -8.818360 -3.349609 -0.966797 3.027344 43.740234 -1.728516 -0.351563 0.009766 -20.419924 -30.146484 5.234375 8.466797 -6.884766 0.743358 42.402348 -8.339843 -5.372508 -0.360362 9.425607 -1.876582 44.520844 -2.160890 -3.298246 14.767276 21.935167 15.669023 -2.263791 -28.722294 4.561185 54.073845 -0.877041 1.779250 13.456836 -14.441831 33.516911 
0.000000 46.655346 47.870277 53.916016 -15.527344 -3.955078 -37.226563 12.480470 -4.306640 -22.509766 7.607422 -27.968750 -25.312498 1.943359 -3.573888 -17.333984 -4.052734 -2.676471 0.000000 -1.230469 -0.068359 83.203125 85.136719 59.492184 -7.900392 -10.585938 -3.896484 -1.132813 3.466797 49.589844 -1.728516 -0.351563 0.009766 -14.121095 -33.818363 1.425781 8.583984 -7.666016 0.948568 48.212887 -8.974609 -6.269532 -11.028466 10.482325 -0.957571 43.826355 -1.985098 -3.380082 79.771515 12.328067 23.738228 -2.430977 -29.382753 4.034321 45.119904 -0.514770 1.586876 27.483625 -17.568151 23.268320 
0.000000 43.449039 54.361301 78.671875 -16.640625 -3.632813 -37.763676 13.613281 -4.707032 -1.845703 7.529296 -28.846375 -26.806641 2.167969 -4.003537 -18.291016 -4.394531 -2.324219 0.000000 -1.230469 -0.068359 -59.511719 59.970707 -77.540375 -8.046876 -11.884767 -4.570313 -1.230469 3.652344 52.001953 -1.728516 -0.351563 0.009766 5.654297 -36.464848 -5.464788 8.623047 -7.753906 1.114599 50.791016 -8.701172 -6.708985 -21.388393 12.241611 0.010511 35.396225 -1.691119 -2.763524 151.779724 1.914257 37.765659 -7.380147 -22.845409 3.001563 38.096355 0.208806 1.565142 3.011212 6.648465 14.921448 
0.000000 39.180504 59.139278 104.160156 -17.167969 -3.879836 -36.103512 14.130858 -4.948788 18.486326 7.451172 -28.769531 -27.216797 2.304688 -4.247654 -18.476563 -4.580078 -1.875805 0.000000 -1.230469 -0.068359 -51.884766 39.824219 -58.623043 -8.300781 -12.705078 -5.193165 -1.279297 3.642578 51.914063 -1.728516 -0.351563 0.009766 28.652344 -37.656250 -11.152343 8.632813 -7.490234 1.143851 50.976559 -7.744140 -6.787109 -29.098623 14.344321 -0.349187 23.783787 -1.768062 -1.944793 91.678062 7.876174 40.957737 -14.558943 -13.533813 1.533698 26.304535 0.903763 1.218851 -17.619022 -1.131981 17.312040 
0.000000 34.004333 62.228455 126.728516 -17.402346 -5.471670 -33.134766 14.111328 -5.087891 30.244143 7.890625 -28.729132 -27.089844 2.363281 -4.286706 -18.251955 -4.648438 -1.552734 0.000000 -1.230469 -0.068359 -94.560547 50.126953 -88.935547 -8.564453 -13.037110 -5.603266 -1.308594 3.476563 50.234371 -1.728516 -0.351563 0.009766 44.609371 -36.982422 -11.386719 8.662109 -7.197265 0.957031 49.619137 -6.328125 -6.630859 -32.287048 16.832178 -2.644597 12.999952 -1.930531 -1.421464 -6.860114 -2.187645 24.934731 -20.871447 -4.734888 -0.950798 13.265662 1.513017 0.128049 -11.205068 -13.929957 24.712526 
0.000000 28.178841 63.827038 143.544922 -17.597658 -8.821312 -29.619139 13.642580 -5.153946 27.529297 9.199219 -29.443361 -26.826170 2.363281 -4.120691 -17.919922 -4.658203 -1.543762 0.000000 -1.230469 -0.068359 -9.511719 83.183586 5.146483 -8.759767 -12.919923 -5.654296 -1.337891 3.212891 47.783199 -1.728516 -0.351563 0.009766 46.435547 -31.835939 -3.945314 8.730468 -7.138671 0.507813 47.460938 -4.658203 -6.319150 -30.060394 19.498074 -7.230842 6.712274 -2.535118 -1.089982 -26.601980 -7.736041 7.175496 -22.900047 4.394042 -6.418858 6.810265 2.360695 -0.364950 17.466980 -11.241873 25.526598 
0.000000 22.377178 64.829147 154.990234 -17.685545 -12.890625 -25.878906 12.890625 -5.185547 13.984375 10.917969 -30.613382 -26.484375 2.314453 -3.827730 -17.548828 -4.609375 -1.767578 0.000000 -1.230469 -0.068359 -84.160156 33.251953 -67.509766 -8.896483 -12.460938 -5.447111 -1.367187 2.890625 44.912605 -1.728516 -0.351563 0.009766 39.619141 -10.898438 5.125107 8.828125 -7.246094 -0.047596 44.853519 -2.919922 -5.928232 -29.979227 20.868629 -12.319590 8.486485 -2.753651 -1.209065 7.940088 -10.608052 -9.753895 -27.205437 11.571680 -13.099852 8.836686 2.937959 -0.016638 42.750874 -9.340797 16.071339 
0.000000 17.376190 66.302841 162.246094 -17.578127 -16.269531 -22.119141 12.031250 -5.185547 -4.394531 12.412109 -31.679688 -26.015625 2.226563 -3.496094 -17.138672 -4.521484 -2.080848 0.000000 -1.230469 -0.068359 -76.113281 12.949220 -65.583748 -8.974609 -11.826172 -5.115186 -1.367188 2.568359 41.845703 -1.728516 -0.351563 0.009766 32.001953 30.283201 9.790082 8.935546 -7.373046 -0.527344 42.070316 -1.240234 -5.527554 -38.280651 21.705912 -14.033116 14.302537 -2.405491 -2.060441 26.914982 -11.305593 -15.995507 -39.227585 15.340952 -16.951500 13.636435 2.685424 0.071095 32.705799 1.380389 15.141718 
0.000000 13.952744 69.316216 166.533203 -17.158203 -17.571241 -18.544924 11.240234 -5.175781 -21.582031 13.037110 -32.070313 -25.371094 2.109375 -3.222297 -16.679688 -4.375000 -2.364026 0.000000 -1.230469 -0.068359 -38.281250 14.912109 -33.310547 -9.023438 -11.181641 -4.804688 -1.347656 2.294922 38.818752 -1.728516 -0.351563 0.009766 28.134768 60.195313 12.352222 9.013672 -7.373047 -0.751953 39.365234 0.234375 -5.185507 -67.283760 20.017879 -11.825686 50.638565 -1.972561 -4.531627 9.477948 -13.685575 -7.765062 -70.640892 11.757597 -16.380211 44.779263 1.715417 1.571471 -11.958778 5.668899 22.508083 
0.000000 12.607217 74.549469 168.925781 -16.367188 -15.871893 -15.341797 10.654297 -5.164209 -32.988285 12.363281 -31.406248 -24.521482 1.992188 -3.066067 -16.201172 -4.199219 -2.500715 0.000000 -1.230469 -0.068359 -32.861328 22.988283 -24.976652 -9.052734 -10.625000 -4.628906 -1.289063 2.109375 36.025391 -1.728516 -0.351563 0.009766 30.488281 51.982422 16.464844 9.062500 -7.148438 -0.595703 36.962891 1.396484 -4.951172 -111.544312 19.168499 -4.750504 100.510468 -0.539558 -8.453519 -187.736343 -164.215302 191.718536 -118.871727 3.789328 -10.315655 88.843246 -2.099402 2.228539 -29.953409 -3.001108 26.786020 
0.000000 12.639895 81.077225 170.224609 -15.361329 -12.268211 -12.470703 10.234375 -5.164280 -39.931641 10.849609 -30.066521 -23.574219 1.875000 -3.007493 -15.712892 -3.994141 -2.548829 0.000000 -1.230469 -0.068359 -43.935547 26.083984 -29.589842 -9.072266 -10.166015 -4.549057 -1.210938 1.992188 33.466797 -1.728516 -0.351563 0.009766 36.533203 33.425587 23.029646 9.082031 -6.777344 -0.185547 34.833988 2.314453 -4.794526 -151.980423 13.143815 8.214465 116.505188 -0.795950 -10.074924 0.815913 -2.944072 27.608921 -155.978592 -5.841146 1.713439 100.032776 -3.917584 2.302194 -12.209161 1.625551 30.811018 
0.000000 13.250360 87.742935 170.986328 -14.326172 -8.076172 -9.912109 9.902344 -5.156250 -44.570313 9.072266 -28.523849 -22.646484 1.757813 -2.987982 -15.244141 -3.798828 -2.539710 0.000000 -1.230469 -0.068359 -44.404301 18.154297 -26.328123 -9.082031 -9.785156 -4.510059 -1.123047 1.904297 31.181969 -1.728516 -0.351563 0.009766 42.910156 35.000000 31.582033 9.091797 -6.376954 0.303819 32.949219 3.076172 -4.677734 -158.192902 12.353473 17.448044 101.759117 -1.408352 -8.925855 3.782465 -1.458601 34.521122 -162.591995 -5.255874 11.128433 97.575417 -3.858599 2.194500 -11.620852 1.344734 21.318235 
0.000000 13.876917 93.305481 171.503906 -13.466797 -4.482422 -7.861328 9.648438 -5.156250 -47.939453 7.548829 -27.205751 -21.875000 1.669922 -2.978516 -14.873048 -3.632813 -2.529297 0.000000 -1.230469 -0.068359 -40.458984 8.193359 -20.340406 -9.091797 -9.472657 -4.492188 -1.054688 1.845703 29.335939 -1.728516 -0.351563 0.009766 48.173828 43.417969 39.257813 9.091797 -6.025392 0.723681 31.445313 3.681641 -4.589217 -150.299728 11.062232 24.749649 80.717850 -2.293334 -6.867244 2.934045 -5.126403 38.278599 -158.308670 -2.882202 18.887203 93.180458 -3.545024 2.130541 -17.772074 -3.685534 9.907321 
